<?xml version="1.0" standalone="no"?>
<!DOCTYPE svg PUBLIC "-//W3C//DTD SVG 20010904//EN"
 "http://www.w3.org/TR/2001/REC-SVG-20010904/DTD/svg10.dtd">
<svg version="1.0" xmlns="http://www.w3.org/2000/svg"
 width="484.000000pt" height="484.000000pt" viewBox="0 0 484.000000 484.000000"
 preserveAspectRatio="xMidYMid meet">
<metadata>
Created by potrace 1.14, written by Peter Selinger 2001-2017
</metadata>
<g transform="translate(0.000000,484.000000) scale(0.100000,-0.100000)"
fill="#000000" stroke="none">
<path d="M565 4556 c-127 -31 -216 -102 -277 -217 l-33 -64 -3 -830 c-1 -456
-3 -1115 -5 -1463 l-2 -632 56 0 55 0 217 543 c119 298 261 652 315 787 392
967 484 1193 510 1255 l30 70 243 0 242 0 16 -24 c9 -14 48 -104 87 -200 39
-97 158 -387 263 -646 106 -258 295 -724 421 -1035 351 -865 475 -1170 498
-1224 12 -27 22 -50 22 -52 0 -2 -157 -4 -349 -4 l-349 0 -67 170 c-65 163
-68 170 -99 175 -17 3 -332 2 -701 -2 l-670 -8 -67 -165 -66 -165 -306 -3
-306 -2 0 -73 c1 -117 16 -195 54 -273 43 -86 103 -144 194 -187 l67 -32 1855
0 c1517 0 1862 2 1893 13 106 38 210 141 250 251 28 76 29 152 20 2121 l-8
1635 -26 55 c-55 117 -170 206 -293 229 -91 17 -3613 14 -3681 -3z m3365 -551
c75 -25 141 -83 177 -154 29 -56 33 -72 33 -144 0 -103 -29 -171 -101 -239
-70 -66 -141 -91 -240 -86 -92 5 -155 33 -219 98 -67 66 -93 128 -94 220 0 98
32 168 110 239 94 86 210 109 334 66z m210 -2135 l0 -1050 -315 0 -315 0 -1
173 c0 94 -2 567 -5 1050 l-4 877 320 0 320 0 0 -1050z"/>
<path d="M1677 2894 c-7 -13 -113 -272 -297 -731 l-158 -393 457 0 458 0 -169
423 c-92 232 -191 481 -220 552 -61 154 -64 160 -71 149z"/>
</g>
</svg>
